<svg xmlns="http://www.w3.org/2000/svg" width="121.559" height="81.857" viewBox="0 0 121.559 81.857"><g data-name="Group 42"><path data-name="Path 279" d="M52.852 21.552h15.864v12.479h-.871V22.423H53.723v11.608h-.871z" fill="#fff"/><path data-name="Path 280" d="M74.173 15.478V34.03h-1.16V16.638H48.572v17.393H47.41V15.478z" fill="#fff"/><g data-name="Group 41"><path data-name="Path 281" d="M80.49 8.415v25.619h-1.634V10.049H42.71v23.985h-1.634V8.417H80.49z" fill="#fff"/></g><path data-name="Path 282" d="M87.997 34.032h-2.178V2.18H35.73v31.852h-2.178V0h54.445z" fill="#fff"/><g data-name="Group 40" fill="#fff"><path data-name="Path 283" d="M35.636 79.758a1.624 1.624 0 01-.794 1.444 3.91 3.91 0 01-2.128.5q-.376 0-1.472-.027.068-1.495.067-3.295 0-1.692-.067-2.972h.576c.114 0 .339-.007.679-.015s.587-.015.743-.015q2 0 2 1.382a1.391 1.391 0 01-.948 1.434v.048a1.427 1.427 0 011.344 1.52m-.814.082q0-1.184-2.1-1.185a6.262 6.262 0 00-.679.032q0 1.282.053 2.295a4.734 4.734 0 002.292-.26.964.964 0 00.432-.881m-.391-2.846c0-.663-.446-.995-1.342-.995a6.448 6.448 0 00-1.092.072c.025.23.037.886.037 1.958.159.007.33.01.521.01a3.265 3.265 0 001.385-.217.843.843 0 00.491-.828m4.563 4.677h-.913q.07-1.56.072-3.295 0-1.7-.072-2.972h.913q-.065 1.312-.067 2.972 0 1.742.067 3.295m7.27-1.913a1.622 1.622 0 01-.8 1.444 3.906 3.906 0 01-2.128.5c-.249 0-.741-.008-1.472-.027q.068-1.495.068-3.295 0-1.692-.068-2.972h.576c.115 0 .34-.007.679-.015s.589-.015.743-.015q2 0 2 1.382a1.391 1.391 0 01-.948 1.434v.048a1.427 1.427 0 011.345 1.52m-.816.082q0-1.184-2.1-1.185a6.307 6.307 0 00-.679.032q0 1.282.053 2.295a3.306 3.306 0 00.646.042 3.264 3.264 0 001.646-.3.961.961 0 00.432-.881m-.389-2.846q0-.994-1.344-.995a6.461 6.461 0 00-1.092.072c.025.23.037.886.037 1.958.159.007.332.01.522.01a3.261 3.261 0 001.384-.217.844.844 0 00.492-.828m7.465 3.965l-.03.711h-3.785q.055-1.192.057-3.295 0-1.81-.057-2.972h.894q-.06.971-.058 2.972c0 1.1-.017 1.978-.053 2.639q1.444 0 3.033-.055m2.987.711h-.913q.07-1.56.072-3.295 0-1.7-.072-2.972h.913q-.068 1.312-.067 2.972 0 1.742.067 3.295m8.332-3.231a3.4 3.4 0 01-.911 2.485 2.848 2.848 0 01-2.1.931 2.764 2.764 0 01-2.008-.855 3.083 3.083 0 01-.865-2.307 3.407 3.407 0 01.91-2.5 2.871 2.871 0 012.1-.921 2.782 2.782 0 012.009.853 3.1 3.1 0 01.865 2.31m-.856.112a2.679 2.679 0 00-.653-1.924 2.034 2.034 0 00-1.505-.681 1.823 1.823 0 00-1.4.718 2.841 2.841 0 00-.616 1.914 2.666 2.666 0 00.656 1.929 2.042 2.042 0 001.5.681 1.807 1.807 0 001.4-.728 2.861 2.861 0 00.614-1.909m7.31-3.148l-.023.678a39.178 39.178 0 00-1.969-.05c-.007.616-.01 1.4-.01 2.345q0 1.57.048 3.295h-.88q.055-1.642.057-3.295 0-1.4-.03-2.345c-.474 0-1.142.022-2 .058l.023-.686zm5.983 5.539l-.03.728h-3.866q.068-1.495.068-3.295 0-1.692-.068-2.972h3.64l-.04.716q-1.324-.058-2.806-.058c.02.5.028 1.172.028 2.016.853 0 1.614-.017 2.281-.058v.719q-1.069-.045-2.281-.043 0 1.237.043 2.32 1.6 0 3.043-.072m7.108.728h-1.053a6.981 6.981 0 00-.549-.838 16.986 16.986 0 00-1.16-1.5c-.476-.536-.826-.8-1.055-.8h-.15q0 1.124.05 3.144h-.899q.073-1.495.073-3.295 0-1.692-.073-2.972h.906c-.033.853-.05 1.717-.05 2.6h.112c.177 0 .616-.412 1.322-1.23a6.983 6.983 0 001.056-1.37h1a5.356 5.356 0 01-1.026 1.192 14.713 14.713 0 01-1.529 1.409v.045a6.553 6.553 0 011.844 1.911 10.4 10.4 0 011.188 1.711m7.19 0h-1.015a10.588 10.588 0 00-.606-2.028h-2.779a10.084 10.084 0 00-.6 2.028h-.973a32.763 32.763 0 011.242-3.081 22.789 22.789 0 001.243-3.186h1.117a23.27 23.27 0 001.183 3.143 24.029 24.029 0 011.183 3.124m-1.843-2.659q-1.132-2.826-1.13-3h-.053q0 .15-1.172 3z"/><path data-name="Path 284" d="M16.05 71.191h-.9q0-1.074-.15-3.1t-.159-2.435h-.048q-.481 1.565-1.218 3.4a10.816 10.816 0 00-.739 2.143h-.651a11.3 11.3 0 00-.688-2.183q-.688-1.845-.871-2.47t-.25-.886h-.048c-.008.441-.074 1.327-.189 2.662s-.177 2.295-.177 2.877h-.828q0-.048.327-2.649a34.159 34.159 0 00.327-3.617h1.267a11.568 11.568 0 00.771 2.647 12.41 12.41 0 01.769 2.564h.048a11.4 11.4 0 01.865-2.572 10.725 10.725 0 00.866-2.639h1.233q0 1.014.222 3.6t.222 2.665m7.884 0h-1.016a10.623 10.623 0 00-.606-2.026h-2.777a10.022 10.022 0 00-.6 2.026h-.973a32.763 32.763 0 011.243-3.078 23.031 23.031 0 001.242-3.188h1.117a23.267 23.267 0 001.183 3.143 24.557 24.557 0 011.185 3.123m-1.844-2.655q-1.132-2.826-1.13-3h-.052q0 .148-1.168 3zm8.609 2.655h-.928q-.461-1.382-.673-1.828a1.462 1.462 0 00-.612-.729 2.547 2.547 0 00-.966-.129q-.411 0-.726.01 0 1.555.057 2.675h-.895q.07-1.49.072-3.291 0-1.695-.072-2.974h.678c.145 0 .327 0 .549-.015s.476-.015.761-.015q2.108 0 2.108 1.454a1.724 1.724 0 01-1.185 1.7v.048a1.474 1.474 0 01.858.736 21.843 21.843 0 01.975 2.358m-1.472-4.515c0-.764-.514-1.145-1.549-1.145a5.614 5.614 0 00-.93.063q.035.836.035 2.277c.192.005.375.008.552.008q1.89 0 1.891-1.2m7.769-1.751l-.023.679a38.027 38.027 0 00-1.969-.05q-.01.924-.01 2.345 0 1.57.048 3.291h-.88q.058-1.64.057-3.291 0-1.4-.028-2.345-.714 0-2 .057l.023-.686zm6.487 0a3.536 3.536 0 01-.591 1.038q-.839 1.217-1.093 1.656a3.471 3.471 0 00-.591 1.532q0 .989.067 2.039h-.925q.062-.994.063-2.05a3.759 3.759 0 00-.554-1.6q-.313-.571-1.035-1.654a4.356 4.356 0 01-.554-.958h.988a10.6 10.6 0 00.83 1.532 5.221 5.221 0 01.831 1.861h.047a5.078 5.078 0 01.793-1.829 7.445 7.445 0 00.791-1.564zM50.39 71.2h-.674q0-.08-1.577-2.3a20.448 20.448 0 01-1.883-2.946h-.049c.057.773.087 1.437.087 1.988q0 1.617.072 3.263h-.808q.082-1.565.082-3.291 0-1.7-.082-2.974h.923a18.709 18.709 0 001.454 2.193 15.491 15.491 0 011.734 2.821h.047a30.23 30.23 0 01-.08-1.993 54.73 54.73 0 00-.069-3.021h.823q-.08 1.274-.082 2.974 0 1.727.082 3.291m8.331-3.229a3.4 3.4 0 01-.91 2.485 2.853 2.853 0 01-2.1.931 2.772 2.772 0 01-2.009-.853 3.1 3.1 0 01-.864-2.308 3.4 3.4 0 01.91-2.5 2.869 2.869 0 012.1-.923 2.769 2.769 0 012.01.855 3.093 3.093 0 01.864 2.308m-.856.112a2.686 2.686 0 00-.651-1.924 2.029 2.029 0 00-1.505-.679 1.821 1.821 0 00-1.405.716 2.839 2.839 0 00-.616 1.916 2.66 2.66 0 00.658 1.928 2.032 2.032 0 001.5.681 1.81 1.81 0 001.4-.724 2.873 2.873 0 00.614-1.913m12.149 3.118h-.903q0-1.074-.148-3.1t-.16-2.435h-.047q-.481 1.565-1.22 3.4a10.879 10.879 0 00-.738 2.143h-.651a11.229 11.229 0 00-.689-2.183q-.688-1.845-.869-2.47t-.25-.886h-.048q-.015.661-.19 2.662t-.175 2.877h-.828q0-.048.327-2.649a34.192 34.192 0 00.327-3.617h1.265a11.664 11.664 0 00.771 2.647 12.406 12.406 0 01.769 2.564h.048a11.447 11.447 0 01.866-2.572 10.721 10.721 0 00.866-2.639h1.237q0 1.014.222 3.6t.222 2.665m7.883 0h-1.015a10.628 10.628 0 00-.606-2.026h-2.779a10.081 10.081 0 00-.6 2.026h-.973a32.962 32.962 0 011.242-3.078 22.768 22.768 0 001.242-3.188h1.118a23.277 23.277 0 001.183 3.143 24.394 24.394 0 011.183 3.123m-1.843-2.655q-1.131-2.826-1.13-3h-.055q0 .148-1.17 3zm7.594 1.853l-.028.8h-4.131l.043-.577q.608-.846 1.767-2.742a12.64 12.64 0 001.245-2.277v-.053c-.7 0-1.7.04-2.987.12l.023-.736h3.932l-.037.6q-.551.774-1.689 2.719a13.524 13.524 0 00-1.19 2.225v.053q1 0 3.056-.13m-.756-7.33a3.685 3.685 0 01-.456.652 5.333 5.333 0 00-.477.666h-.935a5.484 5.484 0 00-.479-.666 3.615 3.615 0 01-.454-.652h.547c.032.04.317.3.853.759.536-.464.819-.719.851-.759zm7.7 1.868a16.7 16.7 0 01-1.215 3.128 16.285 16.285 0 00-1.215 3.138h-.626a18.231 18.231 0 00-1.148-3.114 17.148 17.148 0 01-1.148-3.151h.915a14.808 14.808 0 00.876 2.674 15.476 15.476 0 01.876 2.629h.048a13.665 13.665 0 01.886-2.62 12.828 12.828 0 00.885-2.682zm6.434 0a3.535 3.535 0 01-.591 1.038q-.839 1.217-1.093 1.656a3.471 3.471 0 00-.591 1.532c0 .659.02 1.34.068 2.039h-.926c.04-.663.062-1.347.062-2.05a3.751 3.751 0 00-.552-1.6q-.313-.571-1.035-1.654a4.354 4.354 0 01-.554-.958h.988a10.667 10.667 0 00.828 1.532 5.2 5.2 0 01.833 1.861h.047a5.078 5.078 0 01.793-1.829 7.443 7.443 0 00.791-1.564zm7.026 2.906a3.585 3.585 0 01-.871 2.4 2.993 2.993 0 01-2.41 1.032c-.334 0-.891-.022-1.669-.069q.07-1.49.072-3.291 0-1.695-.072-2.974h.529c.127 0 .324 0 .586-.015s.437-.015.521-.015a3.348 3.348 0 012.507.835 2.9 2.9 0 01.808 2.1m-.834.217a2.5 2.5 0 00-.683-1.786 2.782 2.782 0 00-2.106-.718 4.2 4.2 0 00-.554.05q.04 1.122.04 2.3c0 .865.018 1.746.052 2.639a3.881 3.881 0 00.741.075 2.3 2.3 0 001.889-.753 2.761 2.761 0 00.621-1.813m8.836-.087a3.4 3.4 0 01-.911 2.485 2.847 2.847 0 01-2.1.931 2.776 2.776 0 01-2.011-.853 3.1 3.1 0 01-.863-2.308 3.4 3.4 0 01.91-2.5 2.869 2.869 0 012.1-.923 2.771 2.771 0 012.009.855 3.093 3.093 0 01.864 2.308m-.856.112a2.679 2.679 0 00-.653-1.924 2.025 2.025 0 00-1.5-.679 1.821 1.821 0 00-1.405.716 2.839 2.839 0 00-.616 1.916 2.659 2.659 0 00.656 1.928 2.032 2.032 0 001.5.681 1.81 1.81 0 001.4-.724 2.874 2.874 0 00.614-1.913"/><path data-name="Path 285" d="M3.817 60.008l-.03.708H0q.057-1.189.058-3.293 0-1.81-.058-2.972h.9q-.06.969-.058 2.972c0 1.1-.017 1.978-.053 2.637q1.444 0 3.033-.052m2.988.708h-.913q.07-1.56.07-3.293 0-1.7-.07-2.972h.913q-.068 1.312-.068 2.972 0 1.743.068 3.293m6.783-.728l-.03.728h-3.88q.068-1.492.068-3.293 0-1.695-.068-2.972h3.64l-.04.714q-1.322-.055-2.806-.057.03.746.03 2.016c.853 0 1.612-.017 2.28-.058v.719q-1.066-.045-2.28-.045 0 1.239.042 2.32 1.6 0 3.044-.072m6.294-5.538l-.023.678a38.07 38.07 0 00-1.969-.048c-.007.616-.01 1.4-.01 2.343q0 1.57.048 3.293h-.88q.055-1.642.057-3.293c0-.935-.01-1.714-.03-2.343q-.711 0-2 .055l.025-.684zm7.1 0c-.01.6-.022 1.17-.027 1.7s-.01 1.018-.01 1.472q0 3.225-2.547 3.226a3.027 3.027 0 01-1.138-.19 1.861 1.861 0 01-.779-.582 2.556 2.556 0 01-.449-.99 6.209 6.209 0 01-.14-1.412q0-.711-.01-1.512a209.3 209.3 0 00-.03-1.709h.916q-.057 1.83-.058 2.872a9.2 9.2 0 00.082 1.365 2.417 2.417 0 00.292.876 1.2 1.2 0 00.527.5 1.892 1.892 0 00.808.145 2 2 0 00.838-.145 1.183 1.183 0 00.524-.487 2.453 2.453 0 00.289-.868 8.992 8.992 0 00.085-1.394q0-.513-.017-1.223t-.05-1.641zm7.27 0a16.822 16.822 0 01-1.217 3.128 16.335 16.335 0 00-1.213 3.138h-.626a18.332 18.332 0 00-1.148-3.116 17.062 17.062 0 01-1.148-3.149h.915a14.732 14.732 0 00.875 2.67 15.5 15.5 0 01.876 2.632h.05a13.724 13.724 0 01.885-2.622 12.774 12.774 0 00.886-2.68zm7.479 3.034a3.406 3.406 0 01-.911 2.487 2.861 2.861 0 01-2.1.931 2.776 2.776 0 01-2.009-.855 3.1 3.1 0 01-.863-2.308 3.41 3.41 0 01.91-2.5 2.87 2.87 0 012.1-.92 2.77 2.77 0 012.009.853 3.1 3.1 0 01.865 2.308m-.856.113a2.684 2.684 0 00-.653-1.926 2.038 2.038 0 00-1.505-.679 1.82 1.82 0 00-1.4.718 2.837 2.837 0 00-.616 1.914 2.659 2.659 0 00.656 1.926 2.027 2.027 0 001.5.684 1.8 1.8 0 001.4-.728 2.853 2.853 0 00.616-1.909m6.958 1.5q0 1.78-2.478 1.781a5.663 5.663 0 01-1.607-.207l.169-.756a4.676 4.676 0 001.534.279q1.637 0 1.637-.923a.992.992 0 00-.424-.8 5.973 5.973 0 00-1.117-.593 4.669 4.669 0 01-1.227-.716 1.589 1.589 0 01.01-2.3 2.251 2.251 0 011.564-.5 5.445 5.445 0 011.569.149l-.117.764a5.181 5.181 0 00-1.554-.23q-1.237 0-1.237.828a.816.816 0 00.357.671 6.475 6.475 0 001.02.507 5.186 5.186 0 011.3.744 1.661 1.661 0 01.6 1.3m9.415 1.622h-.674q0-.083-1.579-2.3a20.445 20.445 0 01-1.881-2.947h-.05c.059.773.087 1.439.087 1.989q0 1.615.073 3.263h-.81q.083-1.565.083-3.293 0-1.7-.083-2.972h.925a18.677 18.677 0 001.454 2.191 15.417 15.417 0 011.734 2.822h.047q-.083-1.174-.082-1.994c0-1.185-.022-2.195-.067-3.019h.823q-.083 1.274-.083 2.972 0 1.728.083 3.293m7.989 0h-1.015a10.49 10.49 0 00-.608-2.025H60.84a10.054 10.054 0 00-.6 2.025h-.973a32.851 32.851 0 011.242-3.079 23.069 23.069 0 001.242-3.186h1.117a23.749 23.749 0 001.183 3.143 24.044 24.044 0 011.185 3.123m-1.844-2.655q-1.129-2.831-1.13-3.006h-.053q0 .15-1.17 3.006zm8.111 1.891l-.063.716a4.417 4.417 0 01-1.29.179 3.222 3.222 0 01-2.488-.906 3.157 3.157 0 01-.833-2.216 3.347 3.347 0 01.928-2.367 3.252 3.252 0 012.5-.995 3.445 3.445 0 01.915.13l-.135.764a3.362 3.362 0 00-.988-.172 2.17 2.17 0 00-1.766.721 2.668 2.668 0 00-.6 1.767 2.619 2.619 0 00.691 1.824 2.471 2.471 0 001.916.761 4.835 4.835 0 001.215-.207m3.146.764h-.913q.07-1.56.072-3.293 0-1.7-.072-2.972h.913q-.068 1.312-.067 2.972 0 1.743.067 3.293m8.332-3.231a3.412 3.412 0 01-.909 2.487 2.867 2.867 0 01-2.1.931 2.77 2.77 0 01-2.008-.855 3.093 3.093 0 01-.865-2.308 3.41 3.41 0 01.91-2.5 2.87 2.87 0 012.1-.92 2.767 2.767 0 012.009.853 3.1 3.1 0 01.865 2.308m-.856.113a2.683 2.683 0 00-.653-1.926 2.038 2.038 0 00-1.505-.679 1.82 1.82 0 00-1.4.718 2.837 2.837 0 00-.616 1.914 2.653 2.653 0 00.658 1.926 2.021 2.021 0 001.5.684 1.809 1.809 0 001.4-.728 2.861 2.861 0 00.614-1.909m8.133 3.118h-.674q0-.083-1.579-2.3a20.6 20.6 0 01-1.881-2.947h-.048a27.8 27.8 0 01.087 1.989q0 1.615.072 3.263h-.808q.08-1.565.082-3.293 0-1.7-.082-2.972h.919a18.874 18.874 0 001.455 2.191 15.577 15.577 0 011.732 2.822h.047q-.08-1.174-.082-1.994c0-1.185-.022-2.195-.067-3.019h.823q-.08 1.274-.082 2.972 0 1.728.082 3.293m7.989 0H97.23a10.556 10.556 0 00-.606-2.025h-2.776a10.05 10.05 0 00-.6 2.025h-.973a32.842 32.842 0 011.242-3.079 23.062 23.062 0 001.242-3.186h1.118a23.452 23.452 0 001.183 3.143 24.171 24.171 0 011.183 3.123M96.4 58.065q-1.131-2.831-1.13-3.006h-.055q0 .15-1.17 3.006zm7.681 1.948l-.03.708h-3.785q.055-1.189.057-3.293 0-1.81-.057-2.972h.895q-.06.969-.058 2.972c0 1.1-.017 1.978-.053 2.637.961 0 1.974-.017 3.033-.052m2.987.708h-.915q.073-1.56.073-3.293 0-1.7-.073-2.972h.915q-.067 1.312-.068 2.972 0 1.743.068 3.293m7.706 0h-.674q0-.083-1.579-2.3a20.611 20.611 0 01-1.881-2.947h-.05c.058.773.087 1.439.087 1.989q0 1.615.073 3.263h-.809q.083-1.565.083-3.293 0-1.7-.083-2.972h.925a18.678 18.678 0 001.454 2.191 15.52 15.52 0 011.734 2.822h.047q-.08-1.174-.082-1.994c0-1.185-.022-2.195-.067-3.019h.823q-.082 1.274-.083 2.972 0 1.728.083 3.293m6.783-.728l-.03.728h-3.882q.068-1.492.068-3.293 0-1.695-.068-2.972h3.64l-.04.714q-1.322-.055-2.806-.057.03.746.03 2.016c.851 0 1.614-.017 2.28-.058v.719q-1.067-.045-2.28-.045 0 1.239.043 2.32 1.6 0 3.042-.072m-1.417-6.806a.619.619 0 01-.159.427.566.566 0 01-.447.178.494.494 0 01-.384-.154.565.565 0 01-.135-.38.578.578 0 01.616-.594.473.473 0 01.372.154.552.552 0 01.137.369"/></g><path data-name="Rectangle 1114" fill="#fff" d="M24.481 37.243h72.597v.871H24.481z"/><path data-name="Rectangle 1115" fill="#fff" d="M19.942 40.87h81.673v.873H19.942z"/><path data-name="Rectangle 1116" fill="#fff" d="M15.406 44.503h90.746v.871H15.406z"/></g></svg>